inDegrees=no
num_controls=7
num_derivatives=13
num_iterations=103
num_multipliers=7
num_parameters=0
num_slacks=7
num_states=26
objective=5.219835
objective_accelerations=0.381807
objective_balance=0.028757
objective_effort=0.178291
objective_height=4.562658
objective_ligament=0.068322
solver_duration=1154.774408
status=Solve_Succeeded
success=true
DataType=double
version=3
OpenSimVersion=4.4-2022-07-23-0e9fedc
endheader
time	/jointset/ground_pelvis/pelvis_tilt/value	/jointset/ground_pelvis/pelvis_tx/value	/jointset/ground_pelvis/pelvis_ty/value	/jointset/hip_l/hip_flexion_l/value	/jointset/hip_l/hip_adduction_l/value	/jointset/hip_l/hip_rotation_l/value	/jointset/back/lumbar_extension/value	/jointset/patellofemoral_l/patellar_flexion_l/value	/jointset/knee_l/knee_flexion_l/value	/jointset/knee_l/knee_adduction_l/value	/jointset/knee_l/knee_rotation_l/value	/jointset/ankle_l/ankle_angle_l/value	/jointset/subtalar_l/subtalar_angle_l/value	/jointset/ground_pelvis/pelvis_tilt/speed	/jointset/ground_pelvis/pelvis_tx/speed	/jointset/ground_pelvis/pelvis_ty/speed	/jointset/hip_l/hip_flexion_l/speed	/jointset/hip_l/hip_adduction_l/speed	/jointset/hip_l/hip_rotation_l/speed	/jointset/back/lumbar_extension/speed	/jointset/patellofemoral_l/patellar_flexion_l/speed	/jointset/knee_l/knee_flexion_l/speed	/jointset/knee_l/knee_adduction_l/speed	/jointset/knee_l/knee_rotation_l/speed	/jointset/ankle_l/ankle_angle_l/speed	/jointset/subtalar_l/subtalar_angle_l/speed	/forceset/tau_hip_flexion_l	/forceset/tau_hip_adduction_l	/forceset/tau_hip_rotation_l	/forceset/tau_knee_flexion_l	/forceset/tau_ankle_angle_l	/forceset/tau_subtalar_angle_l	/forceset/tau_lumbar_extension	lambda_cid13_p0	lambda_cid13_p1	lambda_cid13_p2	lambda_cid13_p3	lambda_cid13_p4	lambda_cid13_p5	lambda_cid14_p0	/jointset/ground_pelvis/pelvis_tilt/accel	/jointset/ground_pelvis/pelvis_tx/accel	/jointset/ground_pelvis/pelvis_ty/accel	/jointset/hip_l/hip_flexion_l/accel	/jointset/hip_l/hip_adduction_l/accel	/jointset/hip_l/hip_rotation_l/accel	/jointset/back/lumbar_extension/accel	/jointset/patellofemoral_l/patellar_flexion_l/accel	/jointset/knee_l/knee_flexion_l/accel	/jointset/knee_l/knee_adduction_l/accel	/jointset/knee_l/knee_rotation_l/accel	/jointset/ankle_l/ankle_angle_l/accel	/jointset/subtalar_l/subtalar_angle_l/accel	gamma_cid13_p0	gamma_cid13_p1	gamma_cid13_p2	gamma_cid13_p3	gamma_cid13_p4	gamma_cid13_p5	gamma_cid14_p0
1.5	-0.1645753637103266	0.08066255627648709	0.8177754736533771	0.6546731301656008	-0.4435963446571184	-0.2817229235607879	-0.1996198808175571	0.6858740980315563	0.6858740980315602	-0.1652400042706494	-0.1604218927969424	0.234585161638388	0.03444186614913133	0.1437819985294208	0.05588078272321147	0.3059699445689847	-1.241446986640713	0.2625377958101535	-0.657026124440767	0.3498252356811702	-1.684998824571065	-1.684998824571064	-0.01824079600464004	0.0770356583700131	-0.7053819697598684	-0.09415485060470544	-0.07368992654639966	0.04639381384223819	-0.009033844062882254	-0.211549100925663	-0.0320962135636218	0.01907081680680339	0.0989185592395784	-43.31959950705506	-5.202593269047438	5.639409594311972	2.145338170195083	-531.3013130137737	-62.30697091510559	-30.88996610851911	0.06466500202284486	0.1967674977250599	-0.3095726763243607	-0.5786501150521467	0.5725489156506601	-0.1048644623481572	0.8894843284140792	-1.207074172271605	-1.207074172271574	-0.03807276131420679	0.156913281027471	-0.4880376217131615	0.4458415327912917	1.317533486457017e-07	9.874633133679218e-07	-3.394587687904101e-07	1.839145718701083e-07	1.04769589808857e-07	6.23515158204835e-07	1.287765646976121e-07
1.51	-0.1631343790400489	0.08123108405195527	0.8208190199490045	0.6422313728523916	-0.4409429586545365	-0.288298395029926	-0.1960777120094454	0.6689661832254312	0.6689661832254383	-0.1654247238669409	-0.159645087179027	0.2275077167226333	0.03352213194230522	0.1444093591643905	0.05781089533093657	0.3026760277482687	-1.246722797490134	0.2681131082187775	-0.6579689851718487	0.3585480371939858	-1.696343534352022	-1.696343534352021	-0.01870971464892679	0.07831193285964715	-0.7100140412146524	-0.08978354654335886	-0.07120927464744507	0.04505699602026531	-0.00895718152198772	-0.2085070896041723	-0.02993658927111699	0.01849314380867881	0.09658313836832752	-42.54882764365312	-5.118127595460018	5.66187935002707	2.027246306674913	-529.1997487269693	-62.19977551552724	-31.63370306304143	0.06091825475777803	0.189093057089574	-0.3487855722780286	-0.4748134329420028	0.5460088346527311	-0.07401905172408152	0.8546047508914115	-1.062102176758759	-1.062102176758664	-0.05215066943669786	0.1109158940055643	-0.4368090560083193	0.4339070928403446	1.074425626884018e-07	1.000952253671987e-06	-2.605316950994255e-07	1.993843872768384e-07	6.41134206889649e-08	5.847684003861367e-07	1.201481359092512e-07
1.52	-0.1616872914313186	0.08181850493645995	0.8238277301989582	0.6297423040581067	-0.4382346222416302	-0.2948802995410152	-0.1924501298485642	0.6519520347623647	0.6519520347623574	-0.1656143025005232	-0.1588559325438724	0.2203867476626044	0.03264633722609943	0.1450025862202746	0.05965940453051487	0.299002735434324	-1.250909282861744	0.2735278778747601	-0.6583127328323517	0.3669079062338222	-1.706245555963017	-1.706245555963016	-0.01921260343122526	0.0795054617922516	-0.7140867986153304	-0.08536695248064455	-0.06872862274813617	0.04372017819838905	-0.008880518981845276	-0.2054650782825122	-0.02777696497856796	0.01791547081072047	0.09424771749732998	-41.78462133652044	-5.034451188765924	5.686690158149557	1.899746597937507	-527.2109260933125	-62.12629003709786	-32.36750136987831	0.05783828620580098	0.1804468160956972	-0.3854477749701041	-0.3607850194897588	0.5404403651224381	0.01495815176761496	0.8168978338183751	-0.9185365382791646	-0.9185365382791659	-0.04486678891659385	0.1403641696216321	-0.3761748108919952	0.4548995330648404	8.39610283526841e-08	1.047434626681107e-06	-1.665689185412015e-07	2.180330305561999e-07	3.22695370990162e-08	5.534699235412886e-07	1.116619771451903e-07
1.53	-0.1602345689585494	0.08242407131925907	0.8267978410932978	0.6172169149761955	-0.4354729515856243	-0.3014631656989085	-0.1887407744655014	0.6348463080453735	0.6348463080453789	-0.1658086906971144	-0.1580556422628106	0.21322806643232	0.03181507961668389	0.1455253852497193	0.06144656200782346	0.2949597617735247	-1.253981045492299	0.2787746310579098	-0.6581670124024911	0.3748991345645255	-1.71464394871684	-1.714643948716835	-0.01966489303727513	0.08053485247587862	-0.71753783033784	-0.08087067978263714	-0.06581160840001388	0.04145082284366756	-0.008910638842142651	-0.2032132933225593	-0.02462769975910725	0.01755906109990093	0.0916019567899964	-40.69473940526856	-5.11787402369446	5.754110465685371	1.460177696933751	-525.2194398798782	-62.43404779336185	-33.08791085338998	0.04699307963399529	0.1768040805045629	-0.4226748599094853	-0.2522808255805049	0.5119278199129292	0.02848685343601826	0.780629960801047	-0.762134609680254	-0.762134609679708	-0.0452092492134696	0.08156256953395058	-0.3127852845071954	0.4488885071603494	6.136057386489759e-08	1.128972521939349e-06	-5.663070768653576e-08	2.400591784502322e-07	9.788706884632232e-09	5.300852452311561e-07	1.033269802819484e-07
